# xmcd CD database file
#
# Track frame offsets:
#	150
#	12185
#	24417
#	37174
#	50820
#	63703
#	77586
#	91323
#	105844
#	119179
#	132266
#	144952
#	157645
#	170803
#	184027
#	196494
#	211213
#	223687
#	237618
#	251765
#	264004
#	275392
#	291628
#	304266
#	317661
#	328168
#	339514
#
# Disc length: 4673 seconds
#
# Revision: 0
# Processed by: cddbd v1.5.2PL0 Copyright (c) Steve Scherf et al.
# Submitted via: CDex 1.70beta2
#
DISCID=98123f1b
DTITLE=B.B. KING - Why I Sing The Blues 2007
DYEAR=2007
DGENRE=Blues
TTITLE0=Dark Is The Night(Part 1)
TTITLE1=Dark Is The Night(Part 2)
TTITLE2=Every Day(I Have The Blues)
TTITLE3=Three O'Clock Blues
TTITLE4=Please Love Me
TTITLE5=You Know I Love You
TTITLE6=You Upset Me Baby
TTITLE7=Sweet Little Angel
TTITLE8=Woke Up This Morning
TTITLE9=Bad Luck
TTITLE10=Ten Long Years
TTITLE11=I Wonder
TTITLE12=On My Word Of Honor
TTITLE13=When My Heart Beats Like A Hammer
TTITLE14=Why I Sing The Blues
TTITLE15=Past Day
TTITLE16=I Gotta Find My Baby
TTITLE17=Blind Love
TTITLE18=Whole Lotta Love
TTITLE19=Miss Martha King
TTITLE20=She's Dynamite
TTITLE21=Troubles, Troubles, Troubles
TTITLE22=Boogie Woogie Woman
TTITLE23=Crying Won't Help You
TTITLE24=That Ain't The Way To Do It
TTITLE25=Bye Bye Baby
TTITLE26=Let's Do The Boogie
EXTD=YEAR: 2007
EXTT0=
EXTT1=
EXTT2=
EXTT3=
EXTT4=
EXTT5=
EXTT6=
EXTT7=
EXTT8=
EXTT9=
EXTT10=
EXTT11=
EXTT12=
EXTT13=
EXTT14=
EXTT15=
EXTT16=
EXTT17=
EXTT18=
EXTT19=
EXTT20=
EXTT21=
EXTT22=
EXTT23=
EXTT24=
EXTT25=
EXTT26=
PLAYORDER=
